<svg width="264" height="245" viewBox="0 0 264 245" fill="none" xmlns="http://www.w3.org/2000/svg">
<path d="M42.5014 167.98C33.0639 132.947 28.3452 115.431 38.2544 103.653C48.1635 91.875 67.6193 91.875 106.531 91.875H157.468C196.38 91.875 215.835 91.875 225.744 103.653C235.654 115.431 230.935 132.947 221.498 167.98C215.495 190.262 212.494 201.402 203.543 207.889C194.591 214.375 182.217 214.375 157.468 214.375H106.531C81.7824 214.375 69.4081 214.375 60.4565 207.889C51.505 201.402 48.5037 190.262 42.5014 167.98Z" stroke="#FFBE0B" stroke-width="5"/>
<path opacity="0.5" d="M214.5 96.9792L206.686 70.3829C203.673 60.1276 202.166 54.9999 199.076 51.1382C195.998 47.2924 191.816 44.3281 187.009 42.5843C182.181 40.8333 176.454 40.8333 165 40.8333M49.5 96.9792L57.3144 70.3829C60.3275 60.1276 61.8341 54.9999 64.9243 51.1382C68.0019 47.2924 72.1838 44.3281 76.9914 42.5843C81.8189 40.8333 87.5459 40.8333 99 40.8333" stroke="#FFBE0B" stroke-width="5"/>
<path d="M99 40.8333C99 35.1955 103.925 30.625 110 30.625H154C160.075 30.625 165 35.1955 165 40.8333C165 46.4712 160.075 51.0417 154 51.0417H110C103.925 51.0417 99 46.4712 99 40.8333Z" stroke="#FFBE0B" stroke-width="5"/>
<path opacity="0.5" d="M49.5 183.75L132 91.875M214.5 183.75L137.5 96.9792M49.5 102.083L132 214.375L214.5 102.083" stroke="#FFBE0B" stroke-width="5" stroke-linecap="round" stroke-linejoin="round"/>
<path d="M206 227.448C219.502 227.448 230.447 216.502 230.447 203.001C230.447 189.499 219.502 178.554 206 178.554C192.498 178.554 181.553 189.499 181.553 203.001C181.553 216.502 192.498 227.448 206 227.448Z" fill="white"/>
<path d="M206 228C201.055 228 196.222 226.534 192.11 223.786C187.999 221.039 184.795 217.135 182.903 212.567C181.011 207.999 180.516 202.972 181.48 198.122C182.445 193.273 184.826 188.818 188.323 185.322C191.819 181.826 196.274 179.445 201.123 178.48C205.973 177.516 210.999 178.011 215.567 179.903C220.136 181.795 224.04 185 226.787 189.111C229.534 193.222 231 198.056 231 203C230.992 209.629 228.356 215.983 223.669 220.67C218.982 225.356 212.628 227.993 206 228ZM206 179.107C201.274 179.107 196.654 180.508 192.725 183.134C188.796 185.759 185.734 189.491 183.925 193.857C182.117 198.223 181.644 203.027 182.566 207.661C183.488 212.296 185.763 216.554 189.105 219.895C192.446 223.237 196.704 225.512 201.339 226.434C205.973 227.356 210.777 226.883 215.143 225.075C219.509 223.266 223.241 220.204 225.866 216.275C228.492 212.346 229.893 207.726 229.893 203C229.886 196.666 227.366 190.593 222.887 186.113C218.408 181.634 212.334 179.115 206 179.108V179.107Z" fill="#262626"/>
<path d="M205.5 214.998C204.261 215.024 203.036 214.75 201.945 214.205C200.855 213.66 199.938 212.862 199.283 211.889C197.76 209.817 196.999 206.817 197 202.891C197.001 198.964 197.762 196 199.283 194C199.98 193.073 200.911 192.315 201.995 191.793C203.078 191.27 204.283 190.998 205.505 191C206.728 191.002 207.931 191.277 209.013 191.803C210.095 192.328 211.023 193.089 211.718 194.018C213.239 196.03 213.999 198.988 214 202.891C214 206.817 213.239 209.817 211.718 211.889C211.063 212.862 210.145 213.66 209.055 214.205C207.964 214.75 206.739 215.023 205.5 214.998ZM205.5 211.726C206.094 211.729 206.675 211.571 207.172 211.272C207.754 210.891 208.21 210.368 208.491 209.763C208.912 208.894 209.203 207.976 209.356 207.035C209.587 205.664 209.692 204.278 209.671 202.891C209.692 201.521 209.587 200.153 209.356 198.8C209.206 197.876 208.914 196.976 208.491 196.127C208.21 195.541 207.752 195.042 207.172 194.691C206.665 194.417 206.088 194.273 205.5 194.273C204.912 194.273 204.335 194.417 203.828 194.691C203.248 195.042 202.79 195.541 202.509 196.127C202.085 196.975 201.794 197.875 201.644 198.8C201.413 200.153 201.308 201.521 201.329 202.891C201.308 204.277 201.413 205.663 201.643 207.034C201.796 207.975 202.087 208.893 202.509 209.761C202.789 210.367 203.245 210.89 203.827 211.27C204.324 211.57 204.906 211.729 205.5 211.726Z" fill="#FFBE0B"/>
</svg>
