<svg width="25" height="25" viewBox="0 0 25 25" fill="none" xmlns="http://www.w3.org/2000/svg">
<path fill-rule="evenodd" clip-rule="evenodd" d="M12.5 25C6.60744 25 3.66116 25 1.83059 23.1694C-1.19209e-07 21.3389 0 18.3925 0 12.5C0 6.60744 -1.19209e-07 3.66116 1.83059 1.83059C3.66116 -1.19209e-07 6.60744 0 12.5 0C18.3925 0 21.3389 -1.19209e-07 23.1694 1.83059C25 3.66116 25 6.60744 25 12.5C25 18.3925 25 21.3389 23.1694 23.1694C21.3389 25 18.3925 25 12.5 25ZM12.5 7.8125C13.0177 7.8125 13.4375 8.23224 13.4375 8.75V11.5625H16.25C16.7677 11.5625 17.1875 11.9823 17.1875 12.5C17.1875 13.0177 16.7677 13.4375 16.25 13.4375H13.4375V16.25C13.4375 16.7677 13.0177 17.1875 12.5 17.1875C11.9823 17.1875 11.5625 16.7677 11.5625 16.25V13.4375H8.75C8.23224 13.4375 7.8125 13.0177 7.8125 12.5C7.8125 11.9823 8.23224 11.5625 8.75 11.5625H11.5625V8.75C11.5625 8.23224 11.9823 7.8125 12.5 7.8125Z" fill="#FFBE0B"/>
</svg>
