<svg width="40" height="40" viewBox="0 0 40 40" fill="none" xmlns="http://www.w3.org/2000/svg">
<path d="M38.929 16.514C38.8418 16.8377 38.6786 17.1284 38.4589 17.3618L38.3293 17.4792L30.2811 24.7689L29.8502 25.1593L29.9763 25.7269L32.3871 36.5801L32.3877 36.5826C32.4738 36.9653 32.449 37.3659 32.3174 37.7328C32.1859 38.0995 31.9552 38.412 31.6598 38.635C31.3649 38.8577 31.0175 38.9822 30.6614 38.9982C30.3058 39.0142 29.951 38.9215 29.6406 38.7277C29.6402 38.7274 29.6398 38.7272 29.6393 38.7269L20.5211 32.987L19.9878 32.6513L19.4548 32.9875L10.3571 38.7269C10.3566 38.7272 10.3561 38.7275 10.3556 38.7278C10.0452 38.9215 9.69052 39.0142 9.33504 38.9982C8.97893 38.9822 8.63155 38.8577 8.33661 38.635C8.04121 38.412 7.81054 38.0995 7.67903 37.7328C7.54744 37.3659 7.52267 36.9653 7.60873 36.5826L7.60931 36.58L10.0166 25.738L10.1426 25.1708L9.7122 24.7805L1.66225 17.4796L1.66226 17.4796L1.6574 17.4752C1.3789 17.2259 1.17295 16.8925 1.07101 16.514C0.969019 16.1354 0.977097 15.7333 1.09393 15.3598C1.2107 14.9865 1.42934 14.663 1.71677 14.4264C2.00376 14.1903 2.34711 14.0507 2.70302 14.0196L2.70567 14.0194L13.3164 13.0656L13.9251 13.0109L14.1541 12.4441L18.2959 2.19107L18.2966 2.18953C18.4413 1.82938 18.6832 1.52766 18.9861 1.31821C19.2885 1.1091 19.6396 1 19.9955 1C20.3515 1 20.7026 1.1091 21.005 1.31821C21.3079 1.52766 21.5497 1.82937 21.6945 2.18953L21.6955 2.19204L25.8499 12.4451L26.0791 13.0109L26.6871 13.0656L37.2943 14.0194L37.297 14.0196C37.6529 14.0507 37.9962 14.1903 38.2832 14.4264C38.5707 14.663 38.7893 14.9865 38.9061 15.3598C39.0229 15.7333 39.031 16.1354 38.929 16.514Z" fill="#F5F5F5" stroke="#141414" stroke-width="2"/>
</svg>
